Coordinates
version=1
nRows=22
nColumns=24
inDegrees=yes

Units are S.I. units (second, meters, Newtons, ...)
Angles are in degrees.

endheader
time	pelvis_tilt	pelvis_list	pelvis_rotation	pelvis_tx	pelvis_ty	pelvis_tz	hip_flexion_r	hip_adduction_r	hip_rotation_r	knee_angle_r	ankle_angle_r	subtalar_angle_r	mtp_angle_r	hip_flexion_l	hip_adduction_l	hip_rotation_l	knee_angle_l	ankle_angle_l	subtalar_angle_l	mtp_angle_l	lumbar_extension	lumbar_bending	lumbar_rotation
      7.36000000	     50.41406847	      0.80499635	     -1.95243252	      0.75591402	      0.96401473	     -0.27526475	     15.70366655	    -13.09741518	      6.98494069	    -62.76843452	      7.35917112	     15.80596164	    -32.27929128	     13.57941504	     -8.47548607	      0.55101596	    -59.78750779	      3.01742771	     12.87431922	    -51.07590052	      0.00000000	      0.00000000	      0.00000000
      7.37000000	     50.43358602	      0.82675211	     -1.95383182	      0.75587742	      0.96414013	     -0.27532801	     15.67084378	    -13.13354620	      6.99375628	    -62.75933023	      7.36436005	     15.83744350	    -32.16361947	     13.95638197	     -8.49400179	      0.49236383	    -60.92482029	      2.71367349	     12.60317112	    -50.20121748	      0.00000000	      0.00000000	      0.00000000
      7.38000000	     50.45160720	      0.84891100	     -1.95482998	      0.75588953	      0.96408704	     -0.27541682	     15.64678585	    -13.17210735	      6.99992706	    -62.75830461	      7.36902343	     15.87081105	    -32.04872502	     14.32579179	     -8.51342984	      0.43666011	    -62.00773447	      2.63834159	     12.38557287	    -49.14550397	      0.00000000	      0.00000000	      0.00000000
      7.39000000	     50.45339856	      0.86590491	     -1.95514853	      0.75594466	      0.96395131	     -0.27549436	     15.65122000	    -13.19804339	      7.00007111	    -62.77452425	      7.37492396	     15.90354575	    -31.94198581	     14.59622194	     -8.53883071	      0.41659805	    -62.78211868	      2.86172942	     12.25709621	    -48.24512519	      0.00000000	      0.00000000	      0.00000000
      7.40000000	     50.42539432	      0.87122928	     -1.95224279	      0.75595693	      0.96398383	     -0.27550551	     15.69665676	    -13.20100529	      6.99362021	    -62.80979614	      7.38330550	     15.93274366	    -31.85198902	     14.69938421	     -8.56897091	      0.45199199	    -63.10408228	      3.35055854	     12.23282721	    -47.75628228	      0.00000000	      0.00000000	      0.00000000
      7.41000000	     50.36326792	      0.85901204	     -1.94214216	      0.75593613	      0.96412852	     -0.27545297	     15.78272654	    -13.18094618	      6.98427054	    -62.85767843	      7.39428926	     15.95518637	    -31.78749932	     14.61247461	     -8.60055497	      0.54463161	    -62.97449575	      3.97300290	     12.30068447	    -47.80241360	      0.00000000	      0.00000000	      0.00000000
      7.42000000	     50.27884771	      0.83100662	     -1.92488127	      0.75599067	      0.96404089	     -0.27541187	     15.89158375	    -13.14839650	      6.97851201	    -62.90561699	      7.40642498	     15.96792875	    -31.75626914	     14.37362679	     -8.63320285	      0.67906999	    -62.52948579	      4.53801695	     12.42345771	    -48.35305023	      0.00000000	      0.00000000	      0.00000000
      7.43000000	     50.19875506	      0.80128415	     -1.90860722	      0.75612875	      0.96362593	     -0.27542702	     15.98994680	    -13.11877312	      6.98161039	    -62.93910623	      7.41685773	     15.96918599	    -31.76385399	     14.07696749	     -8.66967838	      0.82731486	    -61.99447805	      4.85429450	     12.55043678	    -49.23796367	      0.00000000	      0.00000000	      0.00000000
      7.44000000	     50.15295895	      0.78987500	     -1.90567956	      0.75622181	      0.96325053	     -0.27545470	     16.04238389	    -13.10454030	      6.99386143	    -62.94680738	      7.42237383	     15.95906325	    -31.81262818	     13.84060148	     -8.71118993	      0.95646137	    -61.60905804	      4.79045612	     12.63528234	    -50.19206031	      0.00000000	      0.00000000	      0.00000000
      7.45000000	     50.15748661	      0.80765661	     -1.92186985	      0.75618394	      0.96329869	     -0.27543315	     16.03134071	    -13.11033649	      7.01009266	    -62.92533888	      7.42096006	     15.93971510	    -31.90113048	     13.75752030	     -8.75285990	      1.03904254	    -61.54415051	      4.31738843	     12.65328036	    -50.91935820	      0.00000000	      0.00000000	      0.00000000
      7.46000000	     50.20228070	      0.84657694	     -1.94879709	      0.75604118	      0.96376430	     -0.27535280	     15.97031080	    -13.13326268	      7.02271940	    -62.88172673	      7.41298273	     15.91481206	    -32.02377621	     13.85639828	     -8.78507545	      1.06381863	    -61.84694257	      3.51809517	     12.61042243	    -51.16040281	      0.00000000	      0.00000000	      0.00000000
      7.47000000	     50.25589519	      0.88585398	     -1.96855764	      0.75589777	      0.96424845	     -0.27527362	     15.89852978	    -13.16638899	      7.02582485	    -62.83150968	      7.40122395	     15.88855005	    -32.17097684	     14.09779725	     -8.80110773	      1.04173262	    -62.43687921	      2.56191244	     12.54016945	    -50.74777788	      0.00000000	      0.00000000	      0.00000000
      7.48000000	     50.28463426	      0.90870168	     -1.96768381	      0.75586262	      0.96432378	     -0.27528992	     15.85903237	    -13.20224397	      7.01761839	    -62.79246106	      7.38974538	     15.86461514	    -32.32980594	     14.40526585	     -8.80366412	      1.00168395	    -63.15359701	      1.65135095	     12.49000760	    -49.63881040	      0.00000000	      0.00000000	      0.00000000
      7.49000000	     50.27151852	      0.91298823	     -1.94741754	      0.75593738	      0.96398718	     -0.27543296	     15.87526512	    -13.23454821	      7.00044256	    -62.77662625	      7.38227801	     15.84544326	    -32.48538772	     14.70612582	     -8.80222521	      0.97563390	    -63.83242094	      0.95993889	     12.50426646	    -47.92100250	      0.00000000	      0.00000000	      0.00000000
      7.50000000	     50.22224548	      0.90706785	     -1.92085354	      0.75604128	      0.96358614	     -0.27562002	     15.94181488	    -13.25860319	      6.97915565	    -62.78503986	      7.38097889	     15.83193157	    -32.62300727	     14.95534817	     -8.80350960	      0.98119815	    -64.36585348	      0.58404601	     12.60938310	    -45.79149687	      0.00000000	      0.00000000	      0.00000000
      7.51000000	     50.15646990	      0.89976373	     -1.90165854	      0.75611114	      0.96338158	     -0.27573502	     16.03250799	    -13.27175590	      6.95928004	    -62.80846075	      7.38597378	     15.82359386	    -32.73057940	     15.13527885	     -8.80646051	      1.01427178	    -64.72399302	      0.52357318	     12.80519416	    -43.51645161	      0.00000000	      0.00000000	      0.00000000
      7.52000000	     50.09463353	      0.89542595	     -1.89570761	      0.75613330	      0.96337712	     -0.27574175	     16.11706876	    -13.27428061	      6.94558090	    -62.83345760	      7.39560825	     15.81903331	    -32.80081055	     15.24428500	     -8.80641862	      1.05599853	    -64.93529900	      0.69368733	     13.06384896	    -41.37993538	      0.00000000	      0.00000000	      0.00000000
      7.53000000	     50.05012306	      0.89452563	     -1.90063111	      0.75613001	      0.96345402	     -0.27569376	     16.17478150	    -13.26948288	      6.94089673	    -62.84963090	      7.40708425	     15.81654078	    -32.83238536	     15.28871449	     -8.80171708	      1.08637531	    -65.04835228	      0.95999797	     13.33658826	    -39.63368675	      0.00000000	      0.00000000	      0.00000000
      7.54000000	     50.02805600	      0.89587228	     -1.91035675	      0.75613039	      0.96352375	     -0.27565485	     16.19918335	    -13.26210950	      6.94521007	    -62.85364216	      7.41720682	     15.81462515	    -32.82982336	     15.28114163	     -8.79553484	      1.09423588	    -65.09968613	      1.18342634	     13.56675767	    -38.45773323	      0.00000000	      0.00000000	      0.00000000
      7.55000000	     50.02741677	      0.89834121	     -1.91964141	      0.75614318	      0.96356025	     -0.27564136	     16.19504093	    -13.25594517	      6.95552229	    -62.84847397	      7.42314525	     15.81232354	    -32.80210037	     15.24014576	     -8.79282301	      1.07931376	    -65.10238416	      1.25995187	     13.70527508	    -37.93816315	      0.00000000	      0.00000000	      0.00000000
      7.56000000	     50.04359363	      0.90160178	     -1.92590612	      0.75614931	      0.96356694	     -0.27563346	     16.17227411	    -13.25238099	      6.96702719	    -62.83956176	      7.42316692	     15.80922982	    -32.76049822	     15.18722402	     -8.79631896	      1.04838371	    -65.05434571	      1.14449532	     13.72377811	    -38.06389151	      0.00000000	      0.00000000	      0.00000000
      7.57000000	     50.07046542	      0.90562626	     -1.92868915	      0.75612375	      0.96355896	     -0.27561441	     16.14069097	    -13.25082439	      6.97528942	    -62.83086619	      7.41719100	     15.80532828	    -32.71629663	     15.14095997	     -8.80461931	      1.00975527	    -64.95437709	      0.85528745	     13.62156839	    -38.74036226	      0.00000000	      0.00000000	      0.00000000
